<?xml version="1.0" encoding="UTF-8" standalone="no"?>
<!-- Created with Inkscape (http://www.inkscape.org/) -->

<svg
   xmlns:dc="http://purl.org/dc/elements/1.1/"
   xmlns:cc="http://creativecommons.org/ns#"
   xmlns:rdf="http://www.w3.org/1999/02/22-rdf-syntax-ns#"
   xmlns:svg="http://www.w3.org/2000/svg"
   xmlns="http://www.w3.org/2000/svg"
   xmlns:sodipodi="http://sodipodi.sourceforge.net/DTD/sodipodi-0.dtd"
   xmlns:inkscape="http://www.inkscape.org/namespaces/inkscape"
   width="491.25"
   height="200.45535"
   id="svg2"
   version="1.1"
   inkscape:version="0.48.4 r9939"
   sodipodi:docname="icytree_start.svg">
  <defs
     id="defs4" />
  <sodipodi:namedview
     id="base"
     pagecolor="#ffffff"
     bordercolor="#666666"
     borderopacity="1.0"
     inkscape:pageopacity="0.0"
     inkscape:pageshadow="2"
     inkscape:zoom="0.7"
     inkscape:cx="215.34941"
     inkscape:cy="120.22767"
     inkscape:document-units="px"
     inkscape:current-layer="layer1"
     showgrid="false"
     fit-margin-top="5"
     fit-margin-left="5"
     fit-margin-right="5"
     fit-margin-bottom="5"
     inkscape:window-width="958"
     inkscape:window-height="1059"
     inkscape:window-x="960"
     inkscape:window-y="0"
     inkscape:window-maximized="0" />
  <metadata
     id="metadata7">
    <rdf:RDF>
      <cc:Work
         rdf:about="">
        <dc:format>image/svg+xml</dc:format>
        <dc:type
           rdf:resource="http://purl.org/dc/dcmitype/StillImage" />
        <dc:title />
      </cc:Work>
    </rdf:RDF>
  </metadata>
  <g
     inkscape:label="Layer 1"
     inkscape:groupmode="layer"
     id="layer1"
     transform="translate(-140.69196,-109.27736)">
    <g
       style="font-size:64px;font-style:normal;font-weight:normal;line-height:125%;letter-spacing:0px;word-spacing:0px;fill:#000000;fill-opacity:1;stroke:none;font-family:Sans"
       id="text2985">
      <path
         d="m 254.42857,160.93361 0,-3.78125 5.96875,0 0,-39.09375 -5.96875,0 0,-3.78125 24,0 0,3.78125 -6,0 0,39.09375 6,0 0,3.78125 -24,0"
         style="font-variant:normal;font-weight:bold;font-stretch:normal;fill:#009afa;font-family:DejaVu Serif;-inkscape-font-specification:DejaVu Serif Bold"
         id="path2989" />
      <path
         d="m 317.52232,150.55861 c -0.7917,3.79167 -2.4167,6.625 -4.875,8.5 -2.43753,1.85417 -5.76044,2.78125 -9.96875,2.78125 -5.91668,0 -10.50001,-1.53125 -13.75,-4.59375 -3.25,-3.06249 -4.875,-7.37499 -4.875,-12.9375 0,-5.49998 1.60417,-9.79164 4.8125,-12.875 3.20833,-3.0833 7.66666,-4.62497 13.375,-4.625 2.31248,3e-5 4.64581,0.21878 7,0.65625 2.35414,0.43753 4.74997,1.09378 7.1875,1.96875 l 0,9.21875 -3.5,0 c -0.33336,-2.81248 -1.15628,-4.89581 -2.46875,-6.25 -1.31252,-1.37497 -3.15627,-2.06247 -5.53125,-2.0625 -3.08335,3e-5 -5.28126,1.0417 -6.59375,3.125 -1.29168,2.08336 -1.93751,5.69794 -1.9375,10.84375 -10e-6,5.02084 0.6354,8.61459 1.90625,10.78125 1.27082,2.14584 3.34373,3.21875 6.21875,3.21875 2.22914,0 4.01039,-0.66666 5.34375,-2 1.35414,-1.33333 2.17706,-3.24999 2.46875,-5.75 l 5.1875,0"
         style="font-variant:normal;font-weight:bold;font-stretch:normal;fill:#009afa;font-family:DejaVu Serif;-inkscape-font-specification:DejaVu Serif Bold"
         id="path2991" />
      <path
         d="m 340.39732,168.43361 c -1.00002,2.43749 -2.20835,4.16665 -3.625,5.1875 -1.41668,1.02082 -3.32293,1.53123 -5.71875,1.53125 -1.02084,-2e-5 -2.15625,-0.1146 -3.40625,-0.34375 -1.25,-0.22918 -2.61458,-0.56251 -4.09375,-1 l 0,-6.9375 3.53125,0.0312 c 0.0625,1.60416 0.4375,2.79166 1.125,3.5625 0.70833,0.77082 1.76041,1.15624 3.15625,1.15625 1.35416,-10e-6 2.44791,-0.37501 3.28125,-1.125 0.83332,-0.72918 1.66665,-2.12501 2.5,-4.1875 l 0.5,-1.15625 -14.46875,-33.65625 -3.59375,0 0,-3.78125 19.15625,0 0,3.78125 -3.96875,0 8.4375,19.65625 7.875,-19.65625 -4.40625,0 0,-3.78125 12.46875,0 0,3.78125 -4.03125,0 -14.71875,36.9375"
         style="font-variant:normal;font-weight:bold;font-stretch:normal;fill:#009afa;font-family:DejaVu Serif;-inkscape-font-specification:DejaVu Serif Bold"
         id="path2993" />
      <path
         d="m 369.27232,160.93361 0,-3.78125 6.1875,0 0,-38.59375 -12.78125,0 0,7.375 -4.28125,0 0,-11.65625 46.25,0 0,11.65625 -4.21875,0 0,-7.375 -12.875,0 0,38.59375 6.21875,0 0,3.78125 -24.5,0"
         style="font-variant:normal;font-weight:bold;font-stretch:normal;fill:#009afa;font-family:DejaVu Serif;-inkscape-font-specification:DejaVu Serif Bold"
         id="path2995" />
      <path
         d="m 435.02232,127.33986 0,9.90625 -3.53125,0 c -0.12503,-1.77081 -0.60419,-3.08331 -1.4375,-3.9375 -0.83336,-0.87497 -2.04169,-1.31247 -3.625,-1.3125 -2.41669,3e-5 -4.32293,1.06253 -5.71875,3.1875 -1.39585,2.12502 -2.09376,5.07294 -2.09375,8.84375 l 0,13.125 6.03125,0 0,3.78125 -21.8125,0 0,-3.78125 4.71875,0 0,-25.65625 -5.0625,0 0,-3.78125 16.125,0 0,5.90625 c 1.08332,-2.31247 2.5104,-4.0208 4.28125,-5.125 1.79165,-1.12497 3.97914,-1.68747 6.5625,-1.6875 0.64581,3e-5 1.42706,0.0521 2.34375,0.15625 0.93747,0.0834 2.01039,0.20837 3.21875,0.375"
         style="font-variant:normal;font-weight:bold;font-stretch:normal;fill:#009afa;font-family:DejaVu Serif;-inkscape-font-specification:DejaVu Serif Bold"
         id="path2997" />
      <path
         d="m 460.05357,142.18361 c -2e-5,-4.37498 -0.40627,-7.43747 -1.21875,-9.1875 -0.81252,-1.7708 -2.19794,-2.65622 -4.15625,-2.65625 -1.89585,3e-5 -3.26043,0.86461 -4.09375,2.59375 -0.81251,1.72919 -1.21876,4.62502 -1.21875,8.6875 l 0,0.5625 10.6875,0 m 12.15625,3.71875 -22.84375,0 0,0.25 c -10e-6,4.29168 0.64582,7.39584 1.9375,9.3125 1.29165,1.89584 3.37498,2.84375 6.25,2.84375 2.39581,0 4.33331,-0.63541 5.8125,-1.90625 1.47914,-1.27083 2.42706,-3.11458 2.84375,-5.53125 l 5.1875,0 c -0.89587,3.77084 -2.67711,6.54167 -5.34375,8.3125 -2.66669,1.77083 -6.39585,2.65625 -11.1875,2.65625 -5.75001,0 -10.16667,-1.51042 -13.25,-4.53125 -3.0625,-3.04166 -4.59375,-7.37499 -4.59375,-13 0,-5.49998 1.57292,-9.79164 4.71875,-12.875 3.14583,-3.0833 7.52082,-4.62497 13.125,-4.625 5.49998,3e-5 9.71872,1.62503 12.65625,4.875 2.93747,3.22919 4.49997,7.96877 4.6875,14.21875"
         style="font-variant:normal;font-weight:bold;font-stretch:normal;fill:#009afa;font-family:DejaVu Serif;-inkscape-font-specification:DejaVu Serif Bold"
         id="path2999" />
      <path
         d="m 500.80357,142.18361 c -2e-5,-4.37498 -0.40627,-7.43747 -1.21875,-9.1875 -0.81252,-1.7708 -2.19794,-2.65622 -4.15625,-2.65625 -1.89585,3e-5 -3.26043,0.86461 -4.09375,2.59375 -0.81251,1.72919 -1.21876,4.62502 -1.21875,8.6875 l 0,0.5625 10.6875,0 m 12.15625,3.71875 -22.84375,0 0,0.25 c -10e-6,4.29168 0.64582,7.39584 1.9375,9.3125 1.29165,1.89584 3.37498,2.84375 6.25,2.84375 2.39581,0 4.33331,-0.63541 5.8125,-1.90625 1.47914,-1.27083 2.42706,-3.11458 2.84375,-5.53125 l 5.1875,0 c -0.89587,3.77084 -2.67711,6.54167 -5.34375,8.3125 -2.66669,1.77083 -6.39585,2.65625 -11.1875,2.65625 -5.75001,0 -10.16667,-1.51042 -13.25,-4.53125 -3.0625,-3.04166 -4.59375,-7.37499 -4.59375,-13 0,-5.49998 1.57292,-9.79164 4.71875,-12.875 3.14583,-3.0833 7.52082,-4.62497 13.125,-4.625 5.49998,3e-5 9.71872,1.62503 12.65625,4.875 2.93747,3.22919 4.49997,7.96877 4.6875,14.21875"
         style="font-variant:normal;font-weight:bold;font-stretch:normal;fill:#009afa;font-family:DejaVu Serif;-inkscape-font-specification:DejaVu Serif Bold"
         id="path3001" />
    </g>
    <g
       style="font-size:32px;font-style:normal;font-weight:normal;text-align:center;line-height:125%;letter-spacing:0px;word-spacing:0px;text-anchor:middle;fill:#000000;fill-opacity:1;stroke:none;font-family:Sans"
       id="text2989">
      <path
         d="m 148.84821,197.34209 0,18.14062 3.8125,0 c 3.21873,0 5.5729,-0.72916 7.0625,-2.1875 1.49998,-1.45833 2.24998,-3.76041 2.25,-6.90625 -2e-5,-3.12498 -0.75002,-5.41144 -2.25,-6.85937 -1.4896,-1.45832 -3.84377,-2.18748 -7.0625,-2.1875 l -3.8125,0 m -3.15625,-2.59375 6.48437,0 c 4.52082,2e-5 7.83852,0.94273 9.95313,2.82812 2.11456,1.87502 3.17185,4.81252 3.17187,8.8125 -2e-5,4.02084 -1.06252,6.97396 -3.1875,8.85938 -2.12502,1.88541 -5.43751,2.82812 -9.9375,2.82812 l -6.48437,0 0,-23.32812"
         style=""
         id="path3004" />
      <path
         d="m 180.33258,203.26396 c -0.32293,-0.18748 -0.6771,-0.3229 -1.0625,-0.40625 -0.37501,-0.0937 -0.79168,-0.14061 -1.25,-0.14062 -1.62501,10e-6 -2.87501,0.53126 -3.75,1.59375 -0.86459,1.05209 -1.29688,2.56772 -1.29687,4.54687 l 0,9.21875 -2.89063,0 0,-17.5 2.89063,0 0,2.71875 c 0.60416,-1.06248 1.39061,-1.84894 2.35937,-2.35937 0.96874,-0.52082 2.14582,-0.78124 3.53125,-0.78125 0.19791,10e-6 0.41666,0.0156 0.65625,0.0469 0.23957,0.0208 0.5052,0.0573 0.79688,0.10938 l 0.0156,2.95312"
         style=""
         id="path3006" />
      <path
         d="m 189.45758,202.59209 c -1.54167,10e-6 -2.76042,0.60418 -3.65625,1.8125 -0.89584,1.19793 -1.34375,2.84376 -1.34375,4.9375 0,2.09375 0.4427,3.74479 1.32813,4.95312 0.89582,1.19792 2.11978,1.79688 3.67187,1.79688 1.53124,0 2.74478,-0.60417 3.64063,-1.8125 0.89581,-1.20833 1.34373,-2.85416 1.34375,-4.9375 -2e-5,-2.07291 -0.44794,-3.71353 -1.34375,-4.92188 -0.89585,-1.21873 -2.10939,-1.82811 -3.64063,-1.82812 m 0,-2.4375 c 2.49999,10e-6 4.46353,0.81251 5.89063,2.4375 1.42706,1.62501 2.1406,3.87501 2.14062,6.75 -2e-5,2.86459 -0.71356,5.11458 -2.14062,6.75 -1.4271,1.625 -3.39064,2.4375 -5.89063,2.4375 -2.51042,0 -4.47917,-0.8125 -5.90625,-2.4375 -1.41667,-1.63542 -2.125,-3.88541 -2.125,-6.75 0,-2.87499 0.70833,-5.12499 2.125,-6.75 1.42708,-1.62499 3.39583,-2.43749 5.90625,-2.4375"
         style=""
         id="path3008" />
      <path
         d="m 205.02008,215.45146 0,9.28125 -2.89062,0 0,-24.15625 2.89062,0 0,2.65625 c 0.60416,-1.04165 1.36458,-1.81248 2.28125,-2.3125 0.92707,-0.5104 2.03124,-0.76561 3.3125,-0.76562 2.12499,10e-6 3.84894,0.84376 5.17188,2.53125 1.33331,1.68751 1.99998,3.90626 2,6.65625 -2e-5,2.75 -0.66669,4.96875 -2,6.65625 -1.32294,1.6875 -3.04689,2.53125 -5.17188,2.53125 -1.28126,0 -2.38543,-0.25 -3.3125,-0.75 -0.91667,-0.51042 -1.67709,-1.28646 -2.28125,-2.32813 m 9.78125,-6.10937 c -2e-5,-2.11458 -0.43751,-3.77082 -1.3125,-4.96875 -0.8646,-1.20832 -2.0573,-1.81249 -3.57812,-1.8125 -1.52085,10e-6 -2.71876,0.60418 -3.59375,1.8125 -0.86459,1.19793 -1.29689,2.85417 -1.29688,4.96875 -1e-5,2.11459 0.43229,3.77604 1.29688,4.98437 0.87499,1.19792 2.0729,1.79688 3.59375,1.79688 1.52082,0 2.71352,-0.59896 3.57812,-1.79688 0.87499,-1.20833 1.31248,-2.86978 1.3125,-4.98437"
         style=""
         id="path3010" />
      <path
         d="m 240.69196,209.27959 c -2.32293,10e-6 -3.9323,0.26563 -4.82813,0.79687 -0.89584,0.53126 -1.34375,1.43751 -1.34375,2.71875 0,1.02084 0.33333,1.83334 1,2.4375 0.67708,0.59375 1.59374,0.89063 2.75,0.89063 1.59374,0 2.86978,-0.5625 3.82813,-1.6875 0.96873,-1.13542 1.45311,-2.64062 1.45312,-4.51563 l 0,-0.64062 -2.85937,0 m 5.73437,-1.1875 0,9.98437 -2.875,0 0,-2.65625 c -0.65626,1.0625 -1.47397,1.84896 -2.45312,2.35938 -0.97918,0.5 -2.1771,0.75 -3.59375,0.75 -1.79168,0 -3.21876,-0.5 -4.28125,-1.5 -1.05209,-1.01042 -1.57813,-2.35937 -1.57813,-4.04688 0,-1.96874 0.65625,-3.45311 1.96875,-4.45312 1.32291,-0.99999 3.29166,-1.49999 5.90625,-1.5 l 4.03125,0 0,-0.28125 c -1e-5,-1.32291 -0.43751,-2.34374 -1.3125,-3.0625 -0.86459,-0.72915 -2.08334,-1.09374 -3.65625,-1.09375 -1.00001,10e-6 -1.97396,0.1198 -2.92187,0.35937 -0.94793,0.2396 -1.85938,0.59897 -2.73438,1.07813 l 0,-2.65625 c 1.05208,-0.40624 2.07291,-0.70832 3.0625,-0.90625 0.98958,-0.20832 1.95312,-0.31249 2.89063,-0.3125 2.53123,10e-6 4.42186,0.65626 5.67187,1.96875 1.24998,1.31251 1.87498,3.30209 1.875,5.96875"
         style=""
         id="path3012" />
      <path
         d="m 262.67633,194.74834 4.25,0 10.34375,19.51562 0,-19.51562 3.0625,0 0,23.32812 -4.25,0 -10.34375,-19.51562 0,19.51562 -3.0625,0 0,-23.32812"
         style=""
         id="path3014" />
      <path
         d="m 301.45758,208.60771 0,1.40625 -13.21875,0 c 0.125,1.97917 0.71875,3.48959 1.78125,4.53125 1.07291,1.03125 2.56249,1.54688 4.46875,1.54688 1.10416,0 2.17186,-0.13542 3.20313,-0.40625 1.04165,-0.27083 2.0729,-0.67708 3.09375,-1.21875 l 0,2.71875 c -1.03127,0.4375 -2.08856,0.77083 -3.17188,1 -1.08335,0.22916 -2.1823,0.34375 -3.29687,0.34375 -2.79168,0 -5.00522,-0.8125 -6.64063,-2.4375 -1.625,-1.625 -2.4375,-3.82291 -2.4375,-6.59375 0,-2.86458 0.77083,-5.13541 2.3125,-6.8125 1.55208,-1.68749 3.64062,-2.53124 6.26563,-2.53125 2.35415,10e-6 4.21352,0.76043 5.57812,2.28125 1.37498,1.51043 2.06248,3.56772 2.0625,6.17187 m -2.875,-0.84375 c -0.0208,-1.5729 -0.46356,-2.82811 -1.32812,-3.76562 -0.85418,-0.93749 -1.9896,-1.40624 -3.40625,-1.40625 -1.60418,10e-6 -2.89064,0.45314 -3.85938,1.35937 -0.95834,0.90627 -1.51042,2.18231 -1.65625,3.82813 l 10.25,-0.0156"
         style=""
         id="path3016" />
      <path
         d="m 304.50446,200.57646 2.875,0 3.59375,13.65625 3.57812,-13.65625 3.39063,0 3.59375,13.65625 3.57812,-13.65625 2.875,0 -4.57812,17.5 -3.39063,0 -3.76562,-14.34375 -3.78125,14.34375 -3.39063,0 -4.57812,-17.5"
         style=""
         id="path3018" />
      <path
         d="m 332.36383,200.57646 2.875,0 0,17.5 -2.875,0 0,-17.5 m 0,-6.8125 2.875,0 0,3.64063 -2.875,0 0,-3.64063"
         style=""
         id="path3020" />
      <path
         d="m 353.83258,201.24834 0,2.6875 c -0.81251,-0.44791 -1.63022,-0.78124 -2.45312,-1 -0.81252,-0.22915 -1.63543,-0.34374 -2.46875,-0.34375 -1.8646,10e-6 -3.31251,0.59376 -4.34375,1.78125 -1.03126,1.17709 -1.54688,2.83334 -1.54688,4.96875 0,2.13542 0.51562,3.79688 1.54688,4.98437 1.03124,1.17709 2.47915,1.76563 4.34375,1.76563 0.83332,0 1.65623,-0.10938 2.46875,-0.32813 0.8229,-0.22916 1.64061,-0.5677 2.45312,-1.01562 l 0,2.65625 c -0.8021,0.375 -1.63543,0.65625 -2.5,0.84375 -0.85418,0.1875 -1.76564,0.28125 -2.73437,0.28125 -2.63543,0 -4.72918,-0.82813 -6.28125,-2.48438 -1.55209,-1.65624 -2.32813,-3.89062 -2.32813,-6.70312 0,-2.85416 0.78125,-5.09895 2.34375,-6.73438 1.57291,-1.6354 3.72395,-2.45311 6.45313,-2.45312 0.8854,10e-6 1.74998,0.0938 2.59375,0.28125 0.84373,0.1771 1.66144,0.44793 2.45312,0.8125"
         style=""
         id="path3022" />
      <path
         d="m 358.75446,193.76396 2.89062,0 0,14.35938 8.57813,-7.54688 3.67187,0 -9.28125,8.1875 9.67188,9.3125 -3.75,0 -8.89063,-8.54687 0,8.54687 -2.89062,0 0,-24.3125"
         style=""
         id="path3024" />
      <path
         d="m 382.53571,194.74834 2.65625,0 -8.125,26.29687 -2.65625,0 8.125,-26.29687"
         style=""
         id="path3026" />
      <path
         d="m 388.36383,194.74834 4.25,0 10.34375,19.51562 0,-19.51562 3.0625,0 0,23.32812 -4.25,0 -10.34375,-19.51562 0,19.51562 -3.0625,0 0,-23.32812"
         style=""
         id="path3028" />
      <path
         d="m 412.30133,194.74834 14.75,0 0,2.65625 -11.59375,0 0,6.90625 11.10938,0 0,2.65625 -11.10938,0 0,8.45312 11.875,0 0,2.65625 -15.03125,0 0,-23.32812"
         style=""
         id="path3030" />
      <path
         d="m 431.42633,194.74834 3.39063,0 5.79687,8.67187 5.82813,-8.67187 3.39062,0 -7.5,11.20312 8,12.125 -3.39062,0 -6.5625,-9.92187 -6.60938,9.92187 -3.40625,0 8.32813,-12.45312 -7.26563,-10.875"
         style=""
         id="path3032" />
      <path
         d="m 454.12946,194.74834 3.17187,0 0,14.17187 c -1e-5,2.50001 0.45312,4.30209 1.35938,5.40625 0.90624,1.09375 2.37499,1.64063 4.40625,1.64063 2.02082,0 3.48436,-0.54688 4.39062,-1.64063 0.90623,-1.10416 1.35936,-2.90624 1.35938,-5.40625 l 0,-14.17187 3.17187,0 0,14.5625 c -2e-5,3.04167 -0.75523,5.33854 -2.26562,6.89062 -1.50002,1.55209 -3.71877,2.32813 -6.65625,2.32813 -2.94793,0 -5.17709,-0.77604 -6.6875,-2.32813 -1.50001,-1.55208 -2.25001,-3.84895 -2.25,-6.89062 l 0,-14.5625"
         style=""
         id="path3034" />
      <path
         d="m 491.91071,195.51396 0,3.07813 c -1.19794,-0.5729 -2.32814,-0.99998 -3.39063,-1.28125 -1.06251,-0.28123 -2.08855,-0.42186 -3.07812,-0.42188 -1.71876,2e-5 -3.04689,0.33336 -3.98438,1 -0.92709,0.66669 -1.39063,1.6146 -1.39062,2.84375 -10e-6,1.03127 0.30728,1.81252 0.92187,2.34375 0.62499,0.52085 1.80208,0.94272 3.53125,1.26563 l 1.90625,0.39062 c 2.35415,0.44793 4.08853,1.2396 5.20313,2.375 1.12498,1.12501 1.68748,2.63543 1.6875,4.53125 -2e-5,2.26042 -0.76044,3.97396 -2.28125,5.14063 -1.51044,1.16666 -3.72918,1.75 -6.65625,1.75 -1.10418,0 -2.28126,-0.125 -3.53125,-0.375 -1.23959,-0.25 -2.52605,-0.61979 -3.85938,-1.10938 l 0,-3.25 c 1.28125,0.71876 2.53645,1.26042 3.76563,1.625 1.22916,0.36459 2.43749,0.54688 3.625,0.54688 1.80207,0 3.19269,-0.35417 4.17187,-1.0625 0.97915,-0.70833 1.46874,-1.71875 1.46875,-3.03125 -1e-5,-1.14583 -0.35418,-2.04166 -1.0625,-2.6875 -0.69793,-0.64583 -1.84897,-1.1302 -3.45312,-1.45313 l -1.92188,-0.375 c -2.35417,-0.46874 -4.0573,-1.20311 -5.10937,-2.20312 -1.05209,-0.99999 -1.57813,-2.39061 -1.57813,-4.17188 0,-2.06248 0.72396,-3.68748 2.17188,-4.875 1.45832,-1.18748 3.46353,-1.78122 6.01562,-1.78125 1.09374,3e-5 2.20832,0.099 3.34375,0.29688 1.1354,0.19794 2.29686,0.49481 3.48438,0.89062"
         style=""
         id="path3036" />
      <path
         d="m 511.14508,195.60771 0,4.96875 5.92188,0 0,2.23438 -5.92188,0 0,9.5 c -1e-5,1.42708 0.1927,2.34375 0.57813,2.75 0.39582,0.40625 1.1927,0.60937 2.39062,0.60937 l 2.95313,0 0,2.40625 -2.95313,0 c -2.21876,0 -3.75,-0.41146 -4.59375,-1.23437 -0.84375,-0.83333 -1.26563,-2.34375 -1.26562,-4.53125 l 0,-9.5 -2.10938,0 0,-2.23438 2.10938,0 0,-4.96875 2.89062,0"
         style=""
         id="path3038" />
      <path
         d="m 531.00446,203.26396 c -0.32293,-0.18748 -0.6771,-0.3229 -1.0625,-0.40625 -0.37502,-0.0937 -0.79168,-0.14061 -1.25,-0.14062 -1.62501,10e-6 -2.87501,0.53126 -3.75,1.59375 -0.86459,1.05209 -1.29689,2.56772 -1.29688,4.54687 l 0,9.21875 -2.89062,0 0,-17.5 2.89062,0 0,2.71875 c 0.60416,-1.06248 1.39062,-1.84894 2.35938,-2.35937 0.96874,-0.52082 2.14582,-0.78124 3.53125,-0.78125 0.1979,10e-6 0.41665,0.0156 0.65625,0.0469 0.23957,0.0208 0.50519,0.0573 0.79687,0.10938 l 0.0156,2.95312"
         style=""
         id="path3040" />
      <path
         d="m 548.31696,208.60771 0,1.40625 -13.21875,0 c 0.12499,1.97917 0.71874,3.48959 1.78125,4.53125 1.0729,1.03125 2.56249,1.54688 4.46875,1.54688 1.10415,0 2.17186,-0.13542 3.20312,-0.40625 1.04165,-0.27083 2.0729,-0.67708 3.09375,-1.21875 l 0,2.71875 c -1.03127,0.4375 -2.08856,0.77083 -3.17187,1 -1.08335,0.22916 -2.18231,0.34375 -3.29688,0.34375 -2.79167,0 -5.00521,-0.8125 -6.64062,-2.4375 -1.62501,-1.625 -2.43751,-3.82291 -2.4375,-6.59375 -10e-6,-2.86458 0.77083,-5.13541 2.3125,-6.8125 1.55207,-1.68749 3.64061,-2.53124 6.26562,-2.53125 2.35415,10e-6 4.21353,0.76043 5.57813,2.28125 1.37498,1.51043 2.06248,3.56772 2.0625,6.17187 m -2.875,-0.84375 c -0.0208,-1.5729 -0.46356,-2.82811 -1.32813,-3.76562 -0.85418,-0.93749 -1.98959,-1.40624 -3.40625,-1.40625 -1.60417,10e-6 -2.89063,0.45314 -3.85937,1.35937 -0.95834,0.90627 -1.51043,2.18231 -1.65625,3.82813 l 10.25,-0.0156"
         style=""
         id="path3042" />
      <path
         d="m 568.00446,208.60771 0,1.40625 -13.21875,0 c 0.12499,1.97917 0.71874,3.48959 1.78125,4.53125 1.0729,1.03125 2.56249,1.54688 4.46875,1.54688 1.10415,0 2.17186,-0.13542 3.20312,-0.40625 1.04165,-0.27083 2.0729,-0.67708 3.09375,-1.21875 l 0,2.71875 c -1.03127,0.4375 -2.08856,0.77083 -3.17187,1 -1.08335,0.22916 -2.18231,0.34375 -3.29688,0.34375 -2.79167,0 -5.00521,-0.8125 -6.64062,-2.4375 -1.62501,-1.625 -2.43751,-3.82291 -2.4375,-6.59375 -10e-6,-2.86458 0.77083,-5.13541 2.3125,-6.8125 1.55207,-1.68749 3.64061,-2.53124 6.26562,-2.53125 2.35415,10e-6 4.21353,0.76043 5.57813,2.28125 1.37498,1.51043 2.06248,3.56772 2.0625,6.17187 m -2.875,-0.84375 c -0.0208,-1.5729 -0.46356,-2.82811 -1.32813,-3.76562 -0.85418,-0.93749 -1.98959,-1.40624 -3.40625,-1.40625 -1.60417,10e-6 -2.89063,0.45314 -3.85937,1.35937 -0.95834,0.90627 -1.51043,2.18231 -1.65625,3.82813 l 10.25,-0.0156"
         style=""
         id="path3044" />
      <path
         d="m 597.05133,200.57646 0,17.5 -2.89062,0 0,-15.26562 -7.89063,0 0,15.26562 -2.89062,0 0,-15.26562 -2.75,0 0,-2.23438 2.75,0 0,-1.21875 c -10e-6,-1.90623 0.44791,-3.31248 1.34375,-4.21875 0.90624,-0.91664 2.29166,-1.37497 4.15625,-1.375 l 2.89062,0 0,2.39063 -2.75,0 c -1.03126,2e-5 -1.75001,0.20835 -2.15625,0.625 -0.39584,0.41668 -0.59376,1.16668 -0.59375,2.25 l 0,1.54687 10.78125,0 m -2.89062,-6.78125 2.89062,0 0,3.64063 -2.89062,0 0,-3.64063"
         style=""
         id="path3046" />
      <path
         d="m 603.09821,193.76396 2.875,0 0,24.3125 -2.875,0 0,-24.3125"
         style=""
         id="path3048" />
      <path
         d="m 626.94196,208.60771 0,1.40625 -13.21875,0 c 0.12499,1.97917 0.71874,3.48959 1.78125,4.53125 1.0729,1.03125 2.56249,1.54688 4.46875,1.54688 1.10415,0 2.17186,-0.13542 3.20312,-0.40625 1.04165,-0.27083 2.0729,-0.67708 3.09375,-1.21875 l 0,2.71875 c -1.03127,0.4375 -2.08856,0.77083 -3.17187,1 -1.08335,0.22916 -2.18231,0.34375 -3.29688,0.34375 -2.79167,0 -5.00521,-0.8125 -6.64062,-2.4375 -1.62501,-1.625 -2.43751,-3.82291 -2.4375,-6.59375 -10e-6,-2.86458 0.77083,-5.13541 2.3125,-6.8125 1.55207,-1.68749 3.64061,-2.53124 6.26562,-2.53125 2.35415,10e-6 4.21353,0.76043 5.57813,2.28125 1.37498,1.51043 2.06248,3.56772 2.0625,6.17187 m -2.875,-0.84375 c -0.0208,-1.5729 -0.46356,-2.82811 -1.32813,-3.76562 -0.85418,-0.93749 -1.98959,-1.40624 -3.40625,-1.40625 -1.60417,10e-6 -2.89063,0.45314 -3.85937,1.35937 -0.95834,0.90627 -1.51043,2.18231 -1.65625,3.82813 l 10.25,-0.0156"
         style=""
         id="path3050" />
      <path
         d="m 345.33258,234.74834 3.15625,0 0,9.5625 11.46875,0 0,-9.5625 3.15625,0 0,23.32812 -3.15625,0 0,-11.10937 -11.46875,0 0,11.10937 -3.15625,0 0,-23.32812"
         style="fill:#009afb"
         id="path3052" />
      <path
         d="m 369.39508,234.74834 14.75,0 0,2.65625 -11.59375,0 0,6.90625 11.10938,0 0,2.65625 -11.10938,0 0,8.45312 11.875,0 0,2.65625 -15.03125,0 0,-23.32812"
         style="fill:#009afb"
         id="path3054" />
      <path
         d="m 400.70758,247.13896 c 0.67707,0.22918 1.33332,0.71876 1.96875,1.46875 0.64582,0.75001 1.29165,1.78126 1.9375,3.09375 l 3.20313,6.375 -3.39063,0 -2.98437,-5.98437 c -0.77085,-1.5625 -1.52085,-2.59895 -2.25,-3.10938 -0.71877,-0.51041 -1.70314,-0.76561 -2.95313,-0.76562 l -3.4375,0 0,9.85937 -3.15625,0 0,-23.32812 7.125,0 c 2.66665,2e-5 4.65624,0.55731 5.96875,1.67187 1.31248,1.11461 1.96873,2.7969 1.96875,5.04688 -2e-5,1.46876 -0.34377,2.68751 -1.03125,3.65625 -0.6771,0.96876 -1.66668,1.64063 -2.96875,2.01562 m -7.90625,-9.79687 0,8.28125 3.96875,0 c 1.52082,10e-6 2.66665,-0.34895 3.4375,-1.04688 0.78124,-0.70832 1.17186,-1.74477 1.17188,-3.10937 -2e-5,-1.36457 -0.39064,-2.39061 -1.17188,-3.07813 -0.77085,-0.69789 -1.91668,-1.04685 -3.4375,-1.04687 l -3.96875,0"
         style="fill:#009afb"
         id="path3056" />
      <path
         d="m 411.89508,234.74834 14.75,0 0,2.65625 -11.59375,0 0,6.90625 11.10938,0 0,2.65625 -11.10938,0 0,8.45312 11.875,0 0,2.65625 -15.03125,0 0,-23.32812"
         style="fill:#009afb"
         id="path3058" />
      <path
         d="m 203.59039,282.59209 c -1.54167,1e-5 -2.76042,0.60418 -3.65625,1.8125 -0.89584,1.19793 -1.34375,2.84376 -1.34375,4.9375 0,2.09375 0.44271,3.74479 1.32813,4.95312 0.89582,1.19792 2.11978,1.79688 3.67187,1.79688 1.53124,0 2.74478,-0.60417 3.64063,-1.8125 0.89582,-1.20833 1.34373,-2.85416 1.34375,-4.9375 -2e-5,-2.07291 -0.44793,-3.71353 -1.34375,-4.92188 -0.89585,-1.21873 -2.10939,-1.82811 -3.64063,-1.82812 m 0,-2.4375 c 2.49999,1e-5 4.46353,0.81251 5.89063,2.4375 1.42706,1.62501 2.14061,3.87501 2.14062,6.75 -1e-5,2.86459 -0.71356,5.11458 -2.14062,6.75 -1.4271,1.625 -3.39064,2.4375 -5.89063,2.4375 -2.51042,0 -4.47917,-0.8125 -5.90625,-2.4375 -1.41667,-1.63542 -2.125,-3.88541 -2.125,-6.75 0,-2.87499 0.70833,-5.12499 2.125,-6.75 1.42708,-1.62499 3.39583,-2.43749 5.90625,-2.4375"
         style=""
         id="path3060" />
      <path
         d="m 226.51227,283.26396 c -0.32293,-0.18748 -0.6771,-0.3229 -1.0625,-0.40625 -0.37501,-0.0937 -0.79168,-0.14061 -1.25,-0.14062 -1.62501,1e-5 -2.87501,0.53126 -3.75,1.59375 -0.86459,1.05209 -1.29688,2.56772 -1.29688,4.54687 l 0,9.21875 -2.89062,0 0,-17.5 2.89062,0 0,2.71875 c 0.60416,-1.06248 1.39062,-1.84894 2.35938,-2.35937 0.96874,-0.52082 2.14582,-0.78124 3.53125,-0.78125 0.1979,1e-5 0.41665,0.0156 0.65625,0.0469 0.23957,0.0208 0.50519,0.0573 0.79687,0.10938 l 0.0156,2.95312"
         style=""
         id="path3062" />
      <path
         d="m 239.74664,273.76396 2.875,0 0,24.3125 -2.875,0 0,-24.3125"
         style=""
         id="path3064" />
      <path
         d="m 255.40289,282.59209 c -1.54167,1e-5 -2.76042,0.60418 -3.65625,1.8125 -0.89584,1.19793 -1.34375,2.84376 -1.34375,4.9375 0,2.09375 0.44271,3.74479 1.32813,4.95312 0.89582,1.19792 2.11978,1.79688 3.67187,1.79688 1.53124,0 2.74478,-0.60417 3.64063,-1.8125 0.89582,-1.20833 1.34373,-2.85416 1.34375,-4.9375 -2e-5,-2.07291 -0.44793,-3.71353 -1.34375,-4.92188 -0.89585,-1.21873 -2.10939,-1.82811 -3.64063,-1.82812 m 0,-2.4375 c 2.49999,1e-5 4.46353,0.81251 5.89063,2.4375 1.42706,1.62501 2.14061,3.87501 2.14062,6.75 -1e-5,2.86459 -0.71356,5.11458 -2.14062,6.75 -1.4271,1.625 -3.39064,2.4375 -5.89063,2.4375 -2.51042,0 -4.47917,-0.8125 -5.90625,-2.4375 -1.41667,-1.63542 -2.125,-3.88541 -2.125,-6.75 0,-2.87499 0.70833,-5.12499 2.125,-6.75 1.42708,-1.62499 3.39583,-2.43749 5.90625,-2.4375"
         style=""
         id="path3066" />
      <path
         d="m 276.13727,289.27959 c -2.32293,1e-5 -3.9323,0.26563 -4.82813,0.79687 -0.89584,0.53126 -1.34375,1.43751 -1.34375,2.71875 0,1.02084 0.33333,1.83334 1,2.4375 0.67708,0.59375 1.59375,0.89063 2.75,0.89063 1.59374,0 2.86978,-0.5625 3.82813,-1.6875 0.96873,-1.13542 1.45311,-2.64062 1.45312,-4.51563 l 0,-0.64062 -2.85937,0 m 5.73437,-1.1875 0,9.98437 -2.875,0 0,-2.65625 c -0.65626,1.0625 -1.47397,1.84896 -2.45312,2.35938 -0.97918,0.5 -2.17709,0.75 -3.59375,0.75 -1.79167,0 -3.21876,-0.5 -4.28125,-1.5 -1.05209,-1.01042 -1.57813,-2.35937 -1.57813,-4.04688 0,-1.96874 0.65625,-3.45311 1.96875,-4.45312 1.32291,-0.99999 3.29166,-1.49999 5.90625,-1.5 l 4.03125,0 0,-0.28125 c -1e-5,-1.32291 -0.43751,-2.34374 -1.3125,-3.0625 -0.86459,-0.72915 -2.08334,-1.09374 -3.65625,-1.09375 -1,1e-5 -1.97396,0.1198 -2.92187,0.35937 -0.94792,0.2396 -1.85938,0.59897 -2.73438,1.07813 l 0,-2.65625 c 1.05208,-0.40624 2.07291,-0.70832 3.0625,-0.90625 0.98958,-0.20832 1.95312,-0.31249 2.89063,-0.3125 2.53124,1e-5 4.42186,0.65626 5.67187,1.96875 1.24999,1.31251 1.87499,3.30209 1.875,5.96875"
         style=""
         id="path3068" />
      <path
         d="m 299.32477,283.23271 0,-9.46875 2.875,0 0,24.3125 -2.875,0 0,-2.625 c -0.60418,1.04167 -1.36981,1.81771 -2.29688,2.32813 -0.91667,0.5 -2.02084,0.75 -3.3125,0.75 -2.11459,0 -3.83854,-0.84375 -5.17187,-2.53125 -1.32292,-1.6875 -1.98438,-3.90625 -1.98438,-6.65625 0,-2.74999 0.66146,-4.96874 1.98438,-6.65625 1.33333,-1.68749 3.05728,-2.53124 5.17187,-2.53125 1.29166,1e-5 2.39583,0.25522 3.3125,0.76562 0.92707,0.50002 1.6927,1.27085 2.29688,2.3125 m -9.79688,6.10938 c 0,2.11459 0.43229,3.77604 1.29688,4.98437 0.87499,1.19792 2.07291,1.79688 3.59375,1.79688 1.52082,0 2.71874,-0.59896 3.59375,-1.79688 0.87498,-1.20833 1.31248,-2.86978 1.3125,-4.98437 -2e-5,-2.11458 -0.43752,-3.77082 -1.3125,-4.96875 -0.87501,-1.20832 -2.07293,-1.81249 -3.59375,-1.8125 -1.52084,1e-5 -2.71876,0.60418 -3.59375,1.8125 -0.86459,1.19793 -1.29688,2.85417 -1.29688,4.96875"
         style=""
         id="path3070" />
      <path
         d="m 318.01227,291.17021 0,-10.59375 2.875,0 0,10.48438 c -10e-6,1.65625 0.32291,2.90104 0.96875,3.73437 0.64582,0.82292 1.61457,1.23438 2.90625,1.23438 1.55207,0 2.77603,-0.49479 3.67187,-1.48438 0.90624,-0.98958 1.35936,-2.33853 1.35938,-4.04687 l 0,-9.92188 2.875,0 0,17.5 -2.875,0 0,-2.6875 c -0.69793,1.0625 -1.51043,1.85417 -2.4375,2.375 -0.91668,0.51042 -1.98439,0.76563 -3.20313,0.76563 -2.01042,0 -3.53646,-0.625 -4.57812,-1.875 -1.04167,-1.25 -1.5625,-3.07812 -1.5625,-5.48438 m 7.23437,-11.01562 0,0"
         style=""
         id="path3072" />
      <path
         d="m 349.77789,281.09209 0,2.71875 c -0.81251,-0.41666 -1.65626,-0.72915 -2.53125,-0.9375 -0.87501,-0.20832 -1.78126,-0.31249 -2.71875,-0.3125 -1.42709,1e-5 -2.5,0.21876 -3.21875,0.65625 -0.70834,0.43751 -1.0625,1.09376 -1.0625,1.96875 0,0.66668 0.25521,1.19272 0.76563,1.57812 0.51041,0.37501 1.53645,0.73439 3.07812,1.07813 l 0.98438,0.21875 c 2.04165,0.43751 3.48957,1.0573 4.34375,1.85937 0.86457,0.79168 1.29686,1.90105 1.29687,3.32813 -1e-5,1.625 -0.64584,2.91146 -1.9375,3.85937 -1.28126,0.94792 -3.04688,1.42188 -5.29687,1.42188 -0.93751,0 -1.91667,-0.0937 -2.9375,-0.28125 -1.01042,-0.17709 -2.07813,-0.44792 -3.20313,-0.8125 l 0,-2.96875 c 1.0625,0.55208 2.10937,0.96875 3.14063,1.25 1.03124,0.27083 2.05207,0.40625 3.0625,0.40625 1.35416,0 2.39582,-0.22917 3.125,-0.6875 0.72915,-0.46875 1.09374,-1.125 1.09375,-1.96875 -10e-6,-0.78125 -0.26564,-1.38021 -0.79688,-1.79688 -0.52084,-0.41666 -1.67188,-0.8177 -3.45312,-1.20312 l -1,-0.23438 c -1.78126,-0.37499 -3.06771,-0.94791 -3.85938,-1.71875 -0.79167,-0.78124 -1.1875,-1.84895 -1.1875,-3.20312 0,-1.64582 0.58333,-2.91665 1.75,-3.8125 1.16666,-0.89582 2.82291,-1.34374 4.96875,-1.34375 1.06249,1e-5 2.06249,0.0781 3,0.23437 0.93749,0.15627 1.80207,0.39064 2.59375,0.70313"
         style=""
         id="path3074" />
      <path
         d="m 355.30914,280.57646 2.875,0 0,17.5 -2.875,0 0,-17.5 m 0,-6.8125 2.875,0 0,3.64063 -2.875,0 0,-3.64063"
         style=""
         id="path3076" />
      <path
         d="m 378.73102,287.51396 0,10.5625 -2.875,0 0,-10.46875 c -2e-5,-1.65624 -0.32293,-2.89582 -0.96875,-3.71875 -0.64585,-0.8229 -1.6146,-1.23436 -2.90625,-1.23437 -1.55209,1e-5 -2.77605,0.4948 -3.67188,1.48437 -0.89584,0.9896 -1.34375,2.33856 -1.34375,4.04688 l 0,9.89062 -2.89062,0 0,-17.5 2.89062,0 0,2.71875 c 0.6875,-1.05207 1.49479,-1.83852 2.42188,-2.35937 0.93749,-0.52082 2.01561,-0.78124 3.23437,-0.78125 2.01041,1e-5 3.53124,0.62501 4.5625,1.875 1.03124,1.23959 1.54686,3.06772 1.54688,5.48437"
         style=""
         id="path3078" />
      <path
         d="m 396.01227,289.12334 c -2e-5,-2.08333 -0.43231,-3.69791 -1.29688,-4.84375 -0.85418,-1.14582 -2.0573,-1.71874 -3.60937,-1.71875 -1.54168,1e-5 -2.7448,0.57293 -3.60938,1.71875 -0.85417,1.14584 -1.28125,2.76042 -1.28125,4.84375 0,2.07292 0.42708,3.68229 1.28125,4.82812 0.86458,1.14584 2.0677,1.71875 3.60938,1.71875 1.55207,0 2.75519,-0.57291 3.60937,-1.71875 0.86457,-1.14583 1.29686,-2.7552 1.29688,-4.82812 m 2.875,6.78125 c -2e-5,2.97916 -0.66148,5.1927 -1.98438,6.64062 -1.32293,1.45833 -3.34897,2.1875 -6.07812,2.1875 -1.01043,0 -1.96355,-0.0781 -2.85938,-0.23437 -0.89584,-0.14584 -1.76563,-0.37501 -2.60937,-0.6875 l 0,-2.79688 c 0.84374,0.45833 1.67708,0.79687 2.5,1.01563 0.82291,0.21874 1.66145,0.32812 2.51562,0.32812 1.88541,0 3.29687,-0.49479 4.23438,-1.48437 0.93748,-0.97917 1.40623,-2.46355 1.40625,-4.45313 l 0,-1.42187 c -0.59377,1.03125 -1.35418,1.80208 -2.28125,2.3125 -0.9271,0.51041 -2.03647,0.76562 -3.32813,0.76562 -2.14584,0 -3.875,-0.81771 -5.1875,-2.45312 -1.3125,-1.63542 -1.96875,-3.80208 -1.96875,-6.5 0,-2.70832 0.65625,-4.8802 1.96875,-6.51563 1.3125,-1.6354 3.04166,-2.45311 5.1875,-2.45312 1.29166,1e-5 2.40103,0.25522 3.32813,0.76562 0.92707,0.51044 1.68748,1.28127 2.28125,2.3125 l 0,-2.65625 2.875,0 0,15.32813"
         style=""
         id="path3080" />
      <path
         d="m 415.12164,274.74834 13.40625,0 0,2.65625 -10.25,0 0,6.875 9.25,0 0,2.65625 -9.25,0 0,11.14062 -3.15625,0 0,-23.32812"
         style=""
         id="path3082" />
      <path
         d="m 431.10602,280.57646 2.875,0 0,17.5 -2.875,0 0,-17.5 m 0,-6.8125 2.875,0 0,3.64063 -2.875,0 0,-3.64063"
         style=""
         id="path3084" />
      <path
         d="m 439.98102,273.76396 2.875,0 0,24.3125 -2.875,0 0,-24.3125"
         style=""
         id="path3086" />
      <path
         d="m 463.82477,288.60771 0,1.40625 -13.21875,0 c 0.12499,1.97917 0.71874,3.48959 1.78125,4.53125 1.07291,1.03125 2.56249,1.54688 4.46875,1.54688 1.10415,0 2.17186,-0.13542 3.20312,-0.40625 1.04165,-0.27083 2.0729,-0.67708 3.09375,-1.21875 l 0,2.71875 c -1.03126,0.4375 -2.08855,0.77083 -3.17187,1 -1.08335,0.22916 -2.18231,0.34375 -3.29688,0.34375 -2.79167,0 -5.00521,-0.8125 -6.64062,-2.4375 -1.625,-1.625 -2.4375,-3.82291 -2.4375,-6.59375 0,-2.86458 0.77083,-5.13541 2.3125,-6.8125 1.55208,-1.68749 3.64062,-2.53124 6.26562,-2.53125 2.35416,1e-5 4.21353,0.76043 5.57813,2.28125 1.37498,1.51043 2.06248,3.56772 2.0625,6.17187 m -2.875,-0.84375 c -0.0208,-1.5729 -0.46356,-2.82811 -1.32813,-3.76562 -0.85418,-0.93749 -1.98959,-1.40624 -3.40625,-1.40625 -1.60417,1e-5 -2.89063,0.45314 -3.85937,1.35937 -0.95834,0.90627 -1.51042,2.18231 -1.65625,3.82813 l 10.25,-0.0156"
         style=""
         id="path3088" />
      <path
         d="m 492.35602,283.93584 c 0.71873,-1.29165 1.5781,-2.24478 2.57812,-2.85938 0.99998,-0.61456 2.17707,-0.92186 3.53125,-0.92187 1.8229,1e-5 3.22914,0.64064 4.21875,1.92187 0.98956,1.27085 1.48435,3.08335 1.48438,5.4375 l 0,10.5625 -2.89063,0 0,-10.46875 c -2e-5,-1.67707 -0.2969,-2.92186 -0.89062,-3.73437 -0.59378,-0.81249 -1.50003,-1.21874 -2.71875,-1.21875 -1.48961,1e-5 -2.66669,0.4948 -3.53125,1.48437 -0.8646,0.9896 -1.29689,2.33856 -1.29688,4.04688 l 0,9.89062 -2.89062,0 0,-10.46875 c -2e-5,-1.68749 -0.29689,-2.93228 -0.89063,-3.73437 -0.59376,-0.81249 -1.51043,-1.21874 -2.75,-1.21875 -1.46876,1e-5 -2.63542,0.50001 -3.5,1.5 -0.86459,0.98959 -1.29688,2.33334 -1.29687,4.03125 l 0,9.89062 -2.89063,0 0,-17.5 2.89063,0 0,2.71875 c 0.65624,-1.0729 1.4427,-1.86456 2.35937,-2.375 0.91666,-0.5104 2.0052,-0.76561 3.26563,-0.76562 1.27082,1e-5 2.34894,0.32293 3.23437,0.96875 0.89582,0.64585 1.55728,1.58335 1.98438,2.8125"
         style=""
         id="path3090" />
      <path
         d="m 524.88727,288.60771 0,1.40625 -13.21875,0 c 0.12499,1.97917 0.71874,3.48959 1.78125,4.53125 1.07291,1.03125 2.56249,1.54688 4.46875,1.54688 1.10415,0 2.17186,-0.13542 3.20312,-0.40625 1.04165,-0.27083 2.0729,-0.67708 3.09375,-1.21875 l 0,2.71875 c -1.03126,0.4375 -2.08855,0.77083 -3.17187,1 -1.08335,0.22916 -2.18231,0.34375 -3.29688,0.34375 -2.79167,0 -5.00521,-0.8125 -6.64062,-2.4375 -1.625,-1.625 -2.4375,-3.82291 -2.4375,-6.59375 0,-2.86458 0.77083,-5.13541 2.3125,-6.8125 1.55208,-1.68749 3.64062,-2.53124 6.26562,-2.53125 2.35416,1e-5 4.21353,0.76043 5.57813,2.28125 1.37498,1.51043 2.06248,3.56772 2.0625,6.17187 m -2.875,-0.84375 c -0.0208,-1.5729 -0.46356,-2.82811 -1.32813,-3.76562 -0.85418,-0.93749 -1.98959,-1.40624 -3.40625,-1.40625 -1.60417,1e-5 -2.89063,0.45314 -3.85937,1.35937 -0.95834,0.90627 -1.51042,2.18231 -1.65625,3.82813 l 10.25,-0.0156"
         style=""
         id="path3092" />
      <path
         d="m 544.15289,287.51396 0,10.5625 -2.875,0 0,-10.46875 c -10e-6,-1.65624 -0.32293,-2.89582 -0.96875,-3.71875 -0.64584,-0.8229 -1.61459,-1.23436 -2.90625,-1.23437 -1.55209,1e-5 -2.77605,0.4948 -3.67187,1.48437 -0.89584,0.9896 -1.34376,2.33856 -1.34375,4.04688 l 0,9.89062 -2.89063,0 0,-17.5 2.89063,0 0,2.71875 c 0.68749,-1.05207 1.49478,-1.83852 2.42187,-2.35937 0.93749,-0.52082 2.01562,-0.78124 3.23438,-0.78125 2.0104,1e-5 3.53123,0.62501 4.5625,1.875 1.03123,1.23959 1.54686,3.06772 1.54687,5.48437"
         style=""
         id="path3094" />
      <path
         d="m 549.62164,291.17021 0,-10.59375 2.875,0 0,10.48438 c 0,1.65625 0.32291,2.90104 0.96875,3.73437 0.64583,0.82292 1.61458,1.23438 2.90625,1.23438 1.55208,0 2.77603,-0.49479 3.67188,-1.48438 0.90623,-0.98958 1.35936,-2.33853 1.35937,-4.04687 l 0,-9.92188 2.875,0 0,17.5 -2.875,0 0,-2.6875 c -0.69793,1.0625 -1.51043,1.85417 -2.4375,2.375 -0.91667,0.51042 -1.98438,0.76563 -3.20312,0.76563 -2.01043,0 -3.53647,-0.625 -4.57813,-1.875 -1.04167,-1.25 -1.5625,-3.07812 -1.5625,-5.48438 m 7.23438,-11.01562 0,0"
         style=""
         id="path3096" />
      <path
         d="m 570.63727,294.10771 3.29687,0 0,3.96875 -3.29687,0 0,-3.96875"
         style=""
         id="path3098" />
    </g>
  </g>
</svg>
