<?xml version="1.0" encoding="UTF-8" standalone="no"?>
<!-- Created with Inkscape (http://www.inkscape.org/) -->

<svg
   xmlns:dc="http://purl.org/dc/elements/1.1/"
   xmlns:cc="http://creativecommons.org/ns#"
   xmlns:rdf="http://www.w3.org/1999/02/22-rdf-syntax-ns#"
   xmlns:svg="http://www.w3.org/2000/svg"
   xmlns="http://www.w3.org/2000/svg"
   xmlns:sodipodi="http://sodipodi.sourceforge.net/DTD/sodipodi-0.dtd"
   xmlns:inkscape="http://www.inkscape.org/namespaces/inkscape"
   width="414.3364"
   height="219.94167"
   id="svg2"
   version="1.1"
   inkscape:version="0.91 r13725"
   sodipodi:docname="icytree_start_flattened.svg">
  <defs
     id="defs4" />
  <sodipodi:namedview
     id="base"
     pagecolor="#ffffff"
     bordercolor="#666666"
     borderopacity="1.0"
     inkscape:pageopacity="0.0"
     inkscape:pageshadow="2"
     inkscape:zoom="0.7"
     inkscape:cx="276.1112"
     inkscape:cy="142.49589"
     inkscape:document-units="px"
     inkscape:current-layer="g4262"
     showgrid="false"
     fit-margin-top="5"
     fit-margin-left="5"
     fit-margin-right="5"
     fit-margin-bottom="5"
     inkscape:window-width="1323"
     inkscape:window-height="1179"
     inkscape:window-x="595"
     inkscape:window-y="0"
     inkscape:window-maximized="0" />
  <metadata
     id="metadata7">
    <rdf:RDF>
      <cc:Work
         rdf:about="">
        <dc:format>image/svg+xml</dc:format>
        <dc:type
           rdf:resource="http://purl.org/dc/dcmitype/StillImage" />
        <dc:title></dc:title>
      </cc:Work>
    </rdf:RDF>
  </metadata>
  <g
     inkscape:label="Layer 1"
     inkscape:groupmode="layer"
     id="layer1"
     transform="translate(-167.28254,-119.5639)">
    <g
       id="g4262"
       transform="translate(-51.428571,478.57143)">
      <g
         id="g4567">
        <g
           id="g4254"
           transform="translate(-5.7142857,-12.857143)">
          <g
             style="font-style:normal;font-variant:normal;font-weight:normal;font-stretch:normal;font-size:35px;line-height:125%;font-family:FreeSans;-inkscape-font-specification:'FreeSans, Normal';text-align:center;letter-spacing:0px;word-spacing:0px;writing-mode:lr-tb;text-anchor:middle;fill:#000000;fill-opacity:1;stroke:none;stroke-width:1px;stroke-linecap:butt;stroke-linejoin:miter;stroke-opacity:1"
             id="text4190">
            <path
               d="m 252.53373,-232.62373 9.835,0 c 6.44,0 10.395,-4.83 10.395,-12.775 0,-7.91 -3.92,-12.74 -10.395,-12.74 l -9.835,0 0,25.515 z m 3.255,-2.87 0,-19.775 6.02,0 c 5.04,0 7.7,3.395 7.7,9.905 0,6.44 -2.66,9.87 -7.7,9.87 l -6.02,0 z"
               style=""
               id="path4579" />
            <path
               d="m 285.05803,-248.40873 0,-2.975 c -0.49,-0.07 -0.735,-0.105 -1.12,-0.105 -1.89,0 -3.325,1.12 -5.005,3.85 l 0,-3.325 -2.695,0 0,18.34 2.94,0 0,-9.52 c 0,-5.145 2.345,-6.195 5.88,-6.265 z"
               style=""
               id="path4581" />
            <path
               d="m 287.61412,-245.53873 2.94,0 c 0.245,-2.24 1.575,-3.255 4.305,-3.255 2.625,0 4.095,0.98 4.095,2.73 l 0,0.77 c 0,1.225 -0.735,1.75 -3.045,2.03 -5.355,0.7 -9.1,1.12 -9.1,6.02 0,3.325 2.31,5.425 6.02,5.425 2.31,0 4.165,-0.805 6.23,-2.695 0.21,1.855 1.12,2.695 3.01,2.695 0.595,0 1.05,-0.07 1.995,-0.315 l 0,-2.205 c -0.315,0.07 -0.455,0.07 -0.63,0.07 -1.015,0 -1.575,-0.525 -1.575,-1.435 l 0,-10.78 c 0,-3.255 -2.38,-5.005 -6.895,-5.005 -3.29,0 -7.175,0.98 -7.35,5.95 z m 5.845,11.165 c -2.275,0 -3.605,-1.085 -3.605,-2.94 0,-4.025 6.125,-3.01 9.1,-4.375 l 0,3.29 c 0,1.75 -2.03,4.025 -5.495,4.025 z"
               style=""
               id="path4583" />
            <path
               d="m 313.37303,-231.81873 c 2.31,0 3.92,-0.98 5.565,-3.29 l 0,0.945 c 0,4.2 -0.98,6.72 -5.11,6.72 -0.91,0 -3.955,-0.105 -4.445,-3.08 l -2.975,0 c 0.315,3.465 3.01,5.53 7.315,5.53 6.965,0 8.19,-4.27 8.19,-10.64 l 0,-15.33 -3.045,0 0.35,2.66 c -1.47,-2.17 -3.255,-3.185 -5.6,-3.185 -4.655,0 -7.805,4.06 -7.805,10.01 0,5.985 3.395,9.66 7.56,9.66 z m 0.56,-16.975 c 3.15,0 5.005,2.66 5.005,7.245 0,4.375 -1.89,7.035 -4.97,7.035 -3.185,0 -5.11,-2.695 -5.11,-7.14 0,-4.41 1.96,-7.14 5.075,-7.14 z"
               style=""
               id="path4585" />
            <path
               d="m 334.64537,-245.53873 2.94,0 c 0.245,-2.24 1.575,-3.255 4.305,-3.255 2.625,0 4.095,0.98 4.095,2.73 l 0,0.77 c 0,1.225 -0.735,1.75 -3.045,2.03 -5.355,0.7 -9.1,1.12 -9.1,6.02 0,3.325 2.31,5.425 6.02,5.425 2.31,0 4.165,-0.805 6.23,-2.695 0.21,1.855 1.12,2.695 3.01,2.695 0.595,0 1.05,-0.07 1.995,-0.315 l 0,-2.205 c -0.315,0.07 -0.455,0.07 -0.63,0.07 -1.015,0 -1.575,-0.525 -1.575,-1.435 l 0,-10.78 c 0,-3.255 -2.38,-5.005 -6.895,-5.005 -3.29,0 -7.175,0.98 -7.35,5.95 z m 5.845,11.165 c -2.275,0 -3.605,-1.085 -3.605,-2.94 0,-4.025 6.125,-3.01 9.1,-4.375 l 0,3.29 c 0,1.75 -2.03,4.025 -5.495,4.025 z"
               style=""
               id="path4587" />
            <path
               d="m 353.89428,-250.96373 0,18.34 2.94,0 0,-10.115 c 0,-3.745 1.96,-6.195 4.97,-6.195 2.31,0 3.78,1.4 3.78,3.605 l 0,12.705 2.905,0 0,-13.86 c 0,-3.045 -2.275,-5.005 -5.81,-5.005 -2.73,0 -4.48,1.05 -6.09,3.605 l 0,-3.08 -2.695,0 z"
               style=""
               id="path4589" />
            <path
               d="m 388.05811,-258.13873 -2.905,0 0,9.485 c -1.225,-1.855 -3.185,-2.835 -5.635,-2.835 -4.76,0 -7.875,3.815 -7.875,9.66 0,6.195 3.045,10.01 7.98,10.01 2.52,0 4.27,-0.945 5.845,-3.22 l 0,2.415 2.59,0 0,-25.515 z m -8.05,9.38 c 3.15,0 5.145,2.8 5.145,7.175 0,4.235 -2.03,7.035 -5.11,7.035 -3.22,0 -5.355,-2.835 -5.355,-7.105 0,-4.27 2.135,-7.105 5.32,-7.105 z"
               style=""
               id="path4591" />
            <path
               d="m 416.35889,-258.13873 -2.905,0 0,9.485 c -1.225,-1.855 -3.185,-2.835 -5.635,-2.835 -4.76,0 -7.875,3.815 -7.875,9.66 0,6.195 3.045,10.01 7.98,10.01 2.52,0 4.27,-0.945 5.845,-3.22 l 0,2.415 2.59,0 0,-25.515 z m -8.05,9.38 c 3.15,0 5.145,2.8 5.145,7.175 0,4.235 -2.03,7.035 -5.11,7.035 -3.22,0 -5.355,-2.835 -5.355,-7.105 0,-4.27 2.135,-7.105 5.32,-7.105 z"
               style=""
               id="path4593" />
            <path
               d="m 429.36467,-248.40873 0,-2.975 c -0.49,-0.07 -0.735,-0.105 -1.12,-0.105 -1.89,0 -3.325,1.12 -5.005,3.85 l 0,-3.325 -2.695,0 0,18.34 2.94,0 0,-9.52 c 0,-5.145 2.345,-6.195 5.88,-6.265 z"
               style=""
               id="path4595" />
            <path
               d="m 439.37577,-251.48873 c -5.145,0 -8.26,3.675 -8.26,9.835 0,6.16 3.08,9.835 8.295,9.835 5.145,0 8.295,-3.675 8.295,-9.695 0,-6.335 -3.045,-9.975 -8.33,-9.975 z m 0.035,2.695 c 3.29,0 5.25,2.695 5.25,7.245 0,4.305 -2.03,7.035 -5.25,7.035 -3.255,0 -5.25,-2.695 -5.25,-7.14 0,-4.41 1.995,-7.14 5.25,-7.14 z"
               style=""
               id="path4597" />
            <path
               d="m 450.82787,-224.99373 2.94,0 0,-9.555 c 1.54,1.89 3.255,2.73 5.635,2.73 4.725,0 7.84,-3.815 7.84,-9.66 0,-6.16 -3.01,-10.01 -7.875,-10.01 -2.485,0 -4.48,1.12 -5.845,3.29 l 0,-2.765 -2.695,0 0,25.97 z m 8.05,-23.765 c 3.22,0 5.32,2.835 5.32,7.21 0,4.165 -2.135,7 -5.32,7 -3.08,0 -5.11,-2.8 -5.11,-7.105 0,-4.305 2.03,-7.105 5.11,-7.105 z"
               style=""
               id="path4599" />
            <path
               d="m 478.88366,-245.53873 2.94,0 c 0.245,-2.24 1.575,-3.255 4.305,-3.255 2.625,0 4.095,0.98 4.095,2.73 l 0,0.77 c 0,1.225 -0.735,1.75 -3.045,2.03 -5.355,0.7 -9.1,1.12 -9.1,6.02 0,3.325 2.31,5.425 6.02,5.425 2.31,0 4.165,-0.805 6.23,-2.695 0.21,1.855 1.12,2.695 3.01,2.695 0.595,0 1.05,-0.07 1.995,-0.315 l 0,-2.205 c -0.315,0.07 -0.455,0.07 -0.63,0.07 -1.015,0 -1.575,-0.525 -1.575,-1.435 l 0,-10.78 c 0,-3.255 -2.38,-5.005 -6.895,-5.005 -3.29,0 -7.175,0.98 -7.35,5.95 z m 5.845,11.165 c -2.275,0 -3.605,-1.085 -3.605,-2.94 0,-4.025 6.125,-3.01 9.1,-4.375 l 0,3.29 c 0,1.75 -2.03,4.025 -5.495,4.025 z"
               style=""
               id="path4601" />
            <path
               d="m 513.88256,-250.96373 -3.01,0 0,-5.04 -2.905,0 0,5.04 -2.485,0 0,2.38 2.485,0 0,13.86 c 0,1.855 1.26,2.905 3.535,2.905 0.7,0 1.4,-0.07 2.38,-0.245 l 0,-2.45 c -0.385,0.105 -0.84,0.14 -1.4,0.14 -1.26,0 -1.61,-0.35 -1.61,-1.645 l 0,-12.565 3.01,0 0,-2.38 z"
               style=""
               id="path4603" />
            <path
               d="m 525.47795,-248.40873 0,-2.975 c -0.49,-0.07 -0.735,-0.105 -1.12,-0.105 -1.89,0 -3.325,1.12 -5.005,3.85 l 0,-3.325 -2.695,0 0,18.34 2.94,0 0,-9.52 c 0,-5.145 2.345,-6.195 5.88,-6.265 z"
               style=""
               id="path4605" />
            <path
               d="m 543.78405,-240.81373 c 0,-6.65 -2.485,-10.675 -8.155,-10.675 -5.11,0 -8.4,3.92 -8.4,9.94 0,6.02 3.185,9.73 8.33,9.73 4.2,0 7.105,-2.38 7.84,-6.37 l -2.94,0 c -0.805,2.415 -2.45,3.675 -4.795,3.675 -3.395,0 -5.32,-2.555 -5.39,-6.3 l 13.51,0 z m -13.44,-2.38 c 0.245,-3.395 2.31,-5.6 5.25,-5.6 3.01,0 5.075,2.45 5.075,5.6 l -10.325,0 z"
               style=""
               id="path4607" />
            <path
               d="m 562.44616,-240.81373 c 0,-6.65 -2.485,-10.675 -8.155,-10.675 -5.11,0 -8.4,3.92 -8.4,9.94 0,6.02 3.185,9.73 8.33,9.73 4.2,0 7.105,-2.38 7.84,-6.37 l -2.94,0 c -0.805,2.415 -2.45,3.675 -4.795,3.675 -3.395,0 -5.32,-2.555 -5.39,-6.3 l 13.51,0 z m -13.44,-2.38 c 0.245,-3.395 2.31,-5.6 5.25,-5.6 3.01,0 5.075,2.45 5.075,5.6 l -10.325,0 z"
               style=""
               id="path4609" />
            <path
               d="m 585.83327,-250.96373 -2.625,0 -0.28,0 -4.9,0 0,-2.87 c 0,-1.225 0.7,-1.855 2.03,-1.855 0.525,0 3.08,0.595 3.22,1.015 l 2.415,0 0,-3.57 -6.265,0 c -2.695,0 -4.305,1.54 -4.305,4.165 l 0,3.115 -2.45,0 0,2.38 2.45,0 0,15.96 2.905,0 0,-15.96 4.9,0 0,15.96 2.905,0 0,-18.34 z"
               style=""
               id="path4611" />
            <path
               d="m 593.42608,-258.13873 -2.94,0 0,25.515 2.94,0 0,-25.515 z"
               style=""
               id="path4613" />
            <path
               d="m 613.51061,-240.81373 c 0,-6.65 -2.485,-10.675 -8.155,-10.675 -5.11,0 -8.4,3.92 -8.4,9.94 0,6.02 3.185,9.73 8.33,9.73 4.2,0 7.105,-2.38 7.84,-6.37 l -2.94,0 c -0.805,2.415 -2.45,3.675 -4.795,3.675 -3.395,0 -5.32,-2.555 -5.39,-6.3 l 13.51,0 z m -13.44,-2.38 c 0.245,-3.395 2.31,-5.6 5.25,-5.6 3.01,0 5.075,2.45 5.075,5.6 l -10.325,0 z"
               style=""
               id="path4615" />
          </g>
          <g
             style="font-style:normal;font-variant:normal;font-weight:normal;font-stretch:normal;font-size:35px;line-height:125%;font-family:FreeSans;-inkscape-font-specification:'FreeSans, Normal';text-align:center;letter-spacing:0px;word-spacing:0px;writing-mode:lr-tb;text-anchor:middle;fill:#000000;fill-opacity:1;stroke:none;stroke-width:1px;stroke-linecap:butt;stroke-linejoin:miter;stroke-opacity:1"
             id="text4242">
            <path
               d="m 237.6854,-157.70373 c -5.145,0 -8.26,3.675 -8.26,9.835 0,6.16 3.08,9.835 8.295,9.835 5.145,0 8.295,-3.675 8.295,-9.695 0,-6.335 -3.045,-9.975 -8.33,-9.975 z m 0.035,2.695 c 3.29,0 5.25,2.695 5.25,7.245 0,4.305 -2.03,7.035 -5.25,7.035 -3.255,0 -5.25,-2.695 -5.25,-7.14 0,-4.41 1.995,-7.14 5.25,-7.14 z"
               style=""
               id="path4618" />
            <path
               d="m 257.95751,-154.62373 0,-2.975 c -0.49,-0.07 -0.735,-0.105 -1.12,-0.105 -1.89,0 -3.325,1.12 -5.005,3.85 l 0,-3.325 -2.695,0 0,18.34 2.94,0 0,-9.52 c 0,-5.145 2.345,-6.195 5.88,-6.265 z"
               style=""
               id="path4620" />
            <path
               d="m 272.4486,-164.35373 -2.94,0 0,25.515 2.94,0 0,-25.515 z"
               style=""
               id="path4622" />
            <path
               d="m 284.23813,-157.70373 c -5.145,0 -8.26,3.675 -8.26,9.835 0,6.16 3.08,9.835 8.295,9.835 5.145,0 8.295,-3.675 8.295,-9.695 0,-6.335 -3.045,-9.975 -8.33,-9.975 z m 0.035,2.695 c 3.29,0 5.25,2.695 5.25,7.245 0,4.305 -2.03,7.035 -5.25,7.035 -3.255,0 -5.25,-2.695 -5.25,-7.14 0,-4.41 1.995,-7.14 5.25,-7.14 z"
               style=""
               id="path4624" />
            <path
               d="m 295.44524,-151.75373 2.94,0 c 0.245,-2.24 1.575,-3.255 4.305,-3.255 2.625,0 4.095,0.98 4.095,2.73 l 0,0.77 c 0,1.225 -0.735,1.75 -3.045,2.03 -5.355,0.7 -9.1,1.12 -9.1,6.02 0,3.325 2.31,5.425 6.02,5.425 2.31,0 4.165,-0.805 6.23,-2.695 0.21,1.855 1.12,2.695 3.01,2.695 0.595,0 1.05,-0.07 1.995,-0.315 l 0,-2.205 c -0.315,0.07 -0.455,0.07 -0.63,0.07 -1.015,0 -1.575,-0.525 -1.575,-1.435 l 0,-10.78 c 0,-3.255 -2.38,-5.005 -6.895,-5.005 -3.29,0 -7.175,0.98 -7.35,5.95 z m 5.845,11.165 c -2.275,0 -3.605,-1.085 -3.605,-2.94 0,-4.025 6.125,-3.01 9.1,-4.375 l 0,3.29 c 0,1.75 -2.03,4.025 -5.495,4.025 z"
               style=""
               id="path4626" />
            <path
               d="m 330.05915,-164.35373 -2.905,0 0,9.485 c -1.225,-1.855 -3.185,-2.835 -5.635,-2.835 -4.76,0 -7.875,3.815 -7.875,9.66 0,6.195 3.045,10.01 7.98,10.01 2.52,0 4.27,-0.945 5.845,-3.22 l 0,2.415 2.59,0 0,-25.515 z m -8.05,9.38 c 3.15,0 5.145,2.8 5.145,7.175 0,4.235 -2.03,7.035 -5.11,7.035 -3.22,0 -5.355,-2.835 -5.355,-7.105 0,-4.27 2.135,-7.105 5.32,-7.105 z"
               style=""
               id="path4628" />
            <path
               d="m 357.58993,-138.83873 0,-18.34 -2.905,0 0,10.395 c 0,3.745 -1.96,6.195 -5.005,6.195 -2.31,0 -3.78,-1.4 -3.78,-3.605 l 0,-12.985 -2.905,0 0,14.14 c 0,3.045 2.275,5.005 5.845,5.005 2.695,0 4.41,-0.945 6.125,-3.36 l 0,2.555 2.625,0 z"
               style=""
               id="path4630" />
            <path
               d="m 363.96376,-144.29873 -3.08,0 c 0.14,4.235 2.52,6.265 7.315,6.265 4.62,0 7.56,-2.275 7.56,-5.81 0,-2.73 -1.54,-4.235 -5.18,-5.11 l -2.8,-0.665 c -2.38,-0.56 -3.395,-1.33 -3.395,-2.625 0,-1.68 1.505,-2.765 3.885,-2.765 2.345,0 3.605,1.015 3.675,2.94 l 3.08,0 c -0.035,-3.605 -2.415,-5.635 -6.65,-5.635 -4.27,0 -7.035,2.205 -7.035,5.6 0,2.87 1.47,4.235 5.81,5.285 l 2.73,0.665 c 2.03,0.49 2.835,1.225 2.835,2.555 0,1.715 -1.715,2.87 -4.27,2.87 -3.57,0 -4.235,-1.785 -4.48,-3.57 z"
               style=""
               id="path4632" />
            <path
               d="m 382.17032,-157.17873 -2.905,0 0,18.34 2.905,0 0,-18.34 z m 0,-7.175 -2.94,0 0,3.675 2.94,0 0,-3.675 z"
               style=""
               id="path4634" />
            <path
               d="m 386.81329,-157.17873 0,18.34 2.94,0 0,-10.115 c 0,-3.745 1.96,-6.195 4.97,-6.195 2.31,0 3.78,1.4 3.78,3.605 l 0,12.705 2.905,0 0,-13.86 c 0,-3.045 -2.275,-5.005 -5.81,-5.005 -2.73,0 -4.48,1.05 -6.09,3.605 l 0,-3.08 -2.695,0 z"
               style=""
               id="path4636" />
            <path
               d="m 412.12212,-138.03373 c 2.31,0 3.92,-0.98 5.565,-3.29 l 0,0.945 c 0,4.2 -0.98,6.72 -5.11,6.72 -0.91,0 -3.955,-0.105 -4.445,-3.08 l -2.975,0 c 0.315,3.465 3.01,5.53 7.315,5.53 6.965,0 8.19,-4.27 8.19,-10.64 l 0,-15.33 -3.045,0 0.35,2.66 c -1.47,-2.17 -3.255,-3.185 -5.6,-3.185 -4.655,0 -7.805,4.06 -7.805,10.01 0,5.985 3.395,9.66 7.56,9.66 z m 0.56,-16.975 c 3.15,0 5.005,2.66 5.005,7.245 0,4.375 -1.89,7.035 -4.97,7.035 -3.185,0 -5.11,-2.695 -5.11,-7.14 0,-4.41 1.96,-7.14 5.075,-7.14 z"
               style=""
               id="path4638" />
            <path
               d="m 440.63946,-157.17873 -3.01,0 0,-5.04 -2.905,0 0,5.04 -2.485,0 0,2.38 2.485,0 0,13.86 c 0,1.855 1.26,2.905 3.535,2.905 0.7,0 1.4,-0.07 2.38,-0.245 l 0,-2.45 c -0.385,0.105 -0.84,0.14 -1.4,0.14 -1.26,0 -1.61,-0.35 -1.61,-1.645 l 0,-12.565 3.01,0 0,-2.38 z"
               style=""
               id="path4640" />
            <path
               d="m 455.06985,-151.54373 0,12.705 2.905,0 0,-13.86 c 0,-3.08 -2.205,-5.005 -5.775,-5.005 -2.59,0 -4.165,0.805 -5.88,3.045 l 0,-9.695 -2.905,0 0,25.515 2.905,0 0,-10.115 c 0,-3.745 1.96,-6.195 4.97,-6.195 1.505,0 3.78,0.735 3.78,3.605 z"
               style=""
               id="path4642" />
            <path
               d="m 477.65032,-147.02873 c 0,-6.65 -2.485,-10.675 -8.155,-10.675 -5.11,0 -8.4,3.92 -8.4,9.94 0,6.02 3.185,9.73 8.33,9.73 4.2,0 7.105,-2.38 7.84,-6.37 l -2.94,0 c -0.805,2.415 -2.45,3.675 -4.795,3.675 -3.395,0 -5.32,-2.555 -5.39,-6.3 l 13.51,0 z m -13.44,-2.38 c 0.245,-3.395 2.31,-5.6 5.25,-5.6 3.01,0 5.075,2.45 5.075,5.6 l -10.325,0 z"
               style=""
               id="path4644" />
            <path
               d="m 493.51243,-150.45873 12.18,0 0,-2.87 -12.18,0 0,-8.155 13.86,0 0,-2.87 -17.115,0 0,25.515 3.255,0 0,-11.62 z"
               style=""
               id="path4646" />
            <path
               d="m 513.69376,-157.17873 -2.905,0 0,18.34 2.905,0 0,-18.34 z m 0,-7.175 -2.94,0 0,3.675 2.94,0 0,-3.675 z"
               style=""
               id="path4648" />
            <path
               d="m 521.27672,-164.35373 -2.94,0 0,25.515 2.94,0 0,-25.515 z"
               style=""
               id="path4650" />
            <path
               d="m 541.36126,-147.02873 c 0,-6.65 -2.485,-10.675 -8.155,-10.675 -5.11,0 -8.4,3.92 -8.4,9.94 0,6.02 3.185,9.73 8.33,9.73 4.2,0 7.105,-2.38 7.84,-6.37 l -2.94,0 c -0.805,2.415 -2.45,3.675 -4.795,3.675 -3.395,0 -5.32,-2.555 -5.39,-6.3 l 13.51,0 z m -13.44,-2.38 c 0.245,-3.395 2.31,-5.6 5.25,-5.6 3.01,0 5.075,2.45 5.075,5.6 l -10.325,0 z"
               style=""
               id="path4652" />
            <path
               d="m 553.26837,-157.17873 0,18.34 2.94,0 0,-11.515 c 0,-2.66 1.925,-4.795 4.305,-4.795 2.17,0 3.395,1.33 3.395,3.675 l 0,12.635 2.94,0 0,-11.515 c 0,-2.66 1.925,-4.795 4.305,-4.795 2.135,0 3.395,1.365 3.395,3.675 l 0,12.635 2.94,0 0,-13.755 c 0,-3.29 -1.89,-5.11 -5.32,-5.11 -2.45,0 -3.92,0.735 -5.635,2.8 -1.085,-1.96 -2.555,-2.8 -4.935,-2.8 -2.45,0 -4.06,0.91 -5.635,3.115 l 0,-2.59 -2.695,0 z"
               style=""
               id="path4654" />
            <path
               d="m 597.21087,-147.02873 c 0,-6.65 -2.485,-10.675 -8.155,-10.675 -5.11,0 -8.4,3.92 -8.4,9.94 0,6.02 3.185,9.73 8.33,9.73 4.2,0 7.105,-2.38 7.84,-6.37 l -2.94,0 c -0.805,2.415 -2.45,3.675 -4.795,3.675 -3.395,0 -5.32,-2.555 -5.39,-6.3 l 13.51,0 z m -13.44,-2.38 c 0.245,-3.395 2.31,-5.6 5.25,-5.6 3.01,0 5.075,2.45 5.075,5.6 l -10.325,0 z"
               style=""
               id="path4656" />
            <path
               d="m 600.36797,-157.17873 0,18.34 2.94,0 0,-10.115 c 0,-3.745 1.96,-6.195 4.97,-6.195 2.31,0 3.78,1.4 3.78,3.605 l 0,12.705 2.905,0 0,-13.86 c 0,-3.045 -2.275,-5.005 -5.81,-5.005 -2.73,0 -4.48,1.05 -6.09,3.605 l 0,-3.08 -2.695,0 z"
               style=""
               id="path4658" />
            <path
               d="m 633.7618,-138.83873 0,-18.34 -2.905,0 0,10.395 c 0,3.745 -1.96,6.195 -5.005,6.195 -2.31,0 -3.78,-1.4 -3.78,-3.605 l 0,-12.985 -2.905,0 0,14.14 c 0,3.045 2.275,5.005 5.845,5.005 2.695,0 4.41,-0.945 6.125,-3.36 l 0,2.555 2.625,0 z"
               style=""
               id="path4660" />
          </g>
          <g
             style="font-style:normal;font-variant:normal;font-weight:normal;font-stretch:normal;font-size:50px;line-height:125%;font-family:FreeSans;-inkscape-font-specification:'FreeSans, Normal';text-align:center;letter-spacing:0px;word-spacing:0px;writing-mode:lr-tb;text-anchor:middle;fill:#009afa;fill-opacity:1;stroke:none;stroke-width:1px;stroke-linecap:butt;stroke-linejoin:miter;stroke-opacity:1"
             id="text4246">
            <path
               d="m 386.07038,-193.04872 0,16.6 4.65,0 0,-36.45 -4.65,0 0,15.75 -18.75,0 0,-15.75 -4.65,0 0,36.45 4.65,0 0,-16.6 18.75,0 z"
               style=""
               id="path4663" />
            <path
               d="m 403.35554,-193.04872 19.85,0 0,-4.1 -19.85,0 0,-11.65 20.6,0 0,-4.1 -25.25,0 0,36.45 26.15,0 0,-4.1 -21.5,0 0,-12.5 z"
               style=""
               id="path4665" />
            <path
               d="m 452.49616,-194.44872 c 4.1,-2 5.75,-4.55 5.75,-8.7 0,-6.3 -3.95,-9.75 -11.1,-9.75 l -16.8,0 0,36.45 4.65,0 0,-15.7 12,0 c 4.15,0 6,2 6,6.5 l 0,3.25 c 0,2.25 0.35,4.45 1,5.95 l 5.65,0 0,-1.15 c -1.95,-1.3 -2.2,-3.4 -2.2,-5.75 0,-0.8 0.05,-1.7 0.05,-2.55 0,-3.3 -0.45,-6.6 -5,-8.55 z m 0.9,-8.05 c 0,4.3 -2.2,6.25 -7.15,6.25 l -11.25,0 0,-12.55 11.25,0 c 3.9,0 7.15,1.1 7.15,6.3 z"
               style=""
               id="path4667" />
            <path
               d="m 470.44538,-193.04872 19.85,0 0,-4.1 -19.85,0 0,-11.65 20.6,0 0,-4.1 -25.25,0 0,36.45 26.15,0 0,-4.1 -21.5,0 0,-12.5 z"
               style=""
               id="path4669" />
          </g>
        </g>
        <g
           style="font-style:normal;font-variant:normal;font-weight:bold;font-stretch:normal;font-size:63.18243027px;line-height:125%;font-family:serif;-inkscape-font-specification:'serif Bold';text-align:center;letter-spacing:0px;word-spacing:0px;writing-mode:lr-tb;text-anchor:middle;fill:#009afa;fill-opacity:1;stroke:none;stroke-width:1px;stroke-linecap:butt;stroke-linejoin:miter;stroke-opacity:1"
           id="text4250">
          <path
             d="m 298.24959,-307.9473 0,-3.73294 5.8925,0 0,-38.59435 -5.8925,0 0,-3.73294 23.69341,0 0,3.73294 -5.92335,0 0,38.59435 5.92335,0 0,3.73294 -23.69341,0 z"
             style="font-style:normal;font-variant:normal;font-weight:bold;font-stretch:normal;font-size:63.18243027px;font-family:serif;-inkscape-font-specification:'serif Bold';fill:#009afa;fill-opacity:1"
             id="path4672" />
          <path
             d="m 360.53734,-318.18976 q -1.17233,5.61484 -4.81272,8.39142 -3.60954,2.74572 -9.8414,2.74572 -8.76163,0 -13.57435,-4.53507 -4.81273,-4.53507 -4.81273,-12.77223 0,-8.14461 4.75102,-12.71053 4.75103,-4.56592 13.20415,-4.56592 3.42443,0 6.91057,0.64787 3.48614,0.64787 7.09569,1.9436 l 0,9.10099 -3.45529,0 q -0.49361,-4.16486 -2.43721,-6.17016 -1.94361,-2.03616 -5.4606,-2.03616 -4.56591,0 -6.50951,3.08508 -1.91275,3.08508 -1.91275,10.70523 0,7.43504 1.8819,10.64353 1.88189,3.17763 6.1393,3.17763 3.30104,0 5.27549,-1.97445 2.0053,-1.97445 2.43721,-5.67655 l 5.12123,0 z"
             style="font-style:normal;font-variant:normal;font-weight:bold;font-stretch:normal;font-size:63.18243027px;font-family:serif;-inkscape-font-specification:'serif Bold';fill:#009afa;fill-opacity:1"
             id="path4674" />
          <path
             d="m 383.12013,-300.54311 q -1.48084,3.60955 -3.57869,5.12124 -2.09786,1.51169 -5.6457,1.51169 -1.51169,0 -3.36273,-0.33936 -1.85105,-0.33936 -4.04146,-0.98723 l 0,-6.84887 3.48614,0.0308 q 0.0926,2.37551 1.11063,3.51699 1.04893,1.14148 3.11593,1.14148 2.0053,0 3.23933,-1.11063 1.23404,-1.07978 2.46807,-4.13401 l 0.49361,-1.14148 -14.28392,-33.22631 -3.54784,0 0,-3.73294 18.91154,0 0,3.73294 -3.91805,0 8.32971,19.40515 7.7744,-19.40515 -4.34996,0 0,-3.73294 12.30947,0 0,3.73294 -3.97975,0 -14.53073,36.46564 z"
             style="font-style:normal;font-variant:normal;font-weight:bold;font-stretch:normal;font-size:63.18243027px;font-family:serif;-inkscape-font-specification:'serif Bold';fill:#009afa;fill-opacity:1"
             id="path4676" />
          <path
             d="m 411.62626,-307.9473 0,-3.73294 6.10845,0 0,-38.10074 -12.61797,0 0,7.28079 -4.22656,0 0,-11.50734 45.65918,0 0,11.50734 -4.16486,0 0,-7.28079 -12.71053,0 0,38.10074 6.13931,0 0,3.73294 -24.18702,0 z"
             style="font-style:normal;font-variant:normal;font-weight:bold;font-stretch:normal;font-size:63.18243027px;font-family:serif;-inkscape-font-specification:'serif Bold';fill:#009afa;fill-opacity:1"
             id="path4678" />
          <path
             d="m 476.56719,-341.1119 0,9.7797 -3.48614,0 q -0.18511,-2.62232 -1.41914,-3.8872 -1.23403,-1.29573 -3.57869,-1.29573 -3.5787,0 -5.6457,3.14678 -2.067,3.14678 -2.067,8.73077 l 0,12.95734 5.9542,0 0,3.73294 -21.53385,0 0,-3.73294 4.65847,0 0,-25.32851 -4.99783,0 0,-3.73294 15.91901,0 0,5.8308 q 1.60424,-3.42444 4.22656,-5.05953 2.65317,-1.66595 6.47866,-1.66595 0.95638,0 2.31381,0.15426 1.38829,0.1234 3.17764,0.37021 z"
             style="font-style:normal;font-variant:normal;font-weight:bold;font-stretch:normal;font-size:63.18243027px;font-family:serif;-inkscape-font-specification:'serif Bold';fill:#009afa;fill-opacity:1"
             id="path4680" />
          <path
             d="m 501.27868,-326.45777 q 0,-6.47867 -1.20318,-9.07014 -1.20319,-2.62232 -4.10316,-2.62232 -2.80742,0 -4.04145,2.56062 -1.20319,2.56062 -1.20319,8.57652 l 0,0.55532 10.55098,0 z m 12.00096,3.67124 -22.55194,0 0,0.24681 q 0,6.35526 1.91275,9.19353 1.91275,2.80743 6.17016,2.80743 3.54784,0 5.73825,-1.8819 2.19041,-1.8819 2.80742,-5.46059 l 5.12124,0 q -1.32659,5.58399 -5.27549,8.20631 -3.9489,2.62232 -11.04459,2.62232 -8.51481,0 -13.08073,-4.47337 -4.53507,-4.50421 -4.53507,-12.83393 0,-8.14461 4.65847,-12.71053 4.65847,-4.56592 12.95733,-4.56592 8.14461,0 12.49458,4.81273 4.34996,4.78187 4.62762,14.03711 z"
             style="font-style:normal;font-variant:normal;font-weight:bold;font-stretch:normal;font-size:63.18243027px;font-family:serif;-inkscape-font-specification:'serif Bold';fill:#009afa;fill-opacity:1"
             id="path4682" />
          <path
             d="m 541.50811,-326.45777 q 0,-6.47867 -1.20318,-9.07014 -1.20318,-2.62232 -4.10316,-2.62232 -2.80742,0 -4.04145,2.56062 -1.20318,2.56062 -1.20318,8.57652 l 0,0.55532 10.55097,0 z m 12.00096,3.67124 -22.55193,0 0,0.24681 q 0,6.35526 1.91275,9.19353 1.91274,2.80743 6.17015,2.80743 3.54785,0 5.73825,-1.8819 2.19041,-1.8819 2.80742,-5.46059 l 5.12124,0 q -1.32659,5.58399 -5.27549,8.20631 -3.9489,2.62232 -11.04458,2.62232 -8.51482,0 -13.08074,-4.47337 -4.53507,-4.50421 -4.53507,-12.83393 0,-8.14461 4.65847,-12.71053 4.65847,-4.56592 12.95734,-4.56592 8.14461,0 12.49457,4.81273 4.34996,4.78187 4.62762,14.03711 z"
             style="font-style:normal;font-variant:normal;font-weight:bold;font-stretch:normal;font-size:63.18243027px;font-family:serif;-inkscape-font-specification:'serif Bold';fill:#009afa;fill-opacity:1"
             id="path4684" />
        </g>
      </g>
    </g>
  </g>
</svg>
